<mxfile host="65bd71144e">
    <diagram id="SBPukOmNZngtvsipyDNz" name="Page-1">
        <mxGraphModel dx="1234" dy="792" grid="1" gridSize="10" guides="1" tooltips="1" connect="1" arrows="1" fold="1" page="1" pageScale="1" pageWidth="1100" pageHeight="850" background="none" math="0" shadow="0">
            <root>
                <mxCell id="0"/>
                <mxCell id="1" parent="0"/>
                <mxCell id="2" value="" style="rounded=0;whiteSpace=wrap;html=1;" vertex="1" parent="1">
                    <mxGeometry width="1100" height="850" as="geometry"/>
                </mxCell>
                <mxCell id="8" value="" style="edgeStyle=none;html=1;fontSize=15;" edge="1" parent="1" source="3" target="7">
                    <mxGeometry relative="1" as="geometry"/>
                </mxCell>
                <mxCell id="3" value="Header" style="rounded=0;whiteSpace=wrap;html=1;labelPosition=center;verticalLabelPosition=middle;align=center;verticalAlign=middle;fontSize=20;fontStyle=1" vertex="1" parent="1">
                    <mxGeometry x="30" y="20" width="1050" height="50" as="geometry"/>
                </mxCell>
                <mxCell id="6" value="" style="rounded=0;whiteSpace=wrap;html=1;" vertex="1" parent="1">
                    <mxGeometry x="30" y="90" width="1040" height="740" as="geometry"/>
                </mxCell>
                <mxCell id="7" value="CoffeeControl&lt;br style=&quot;font-size: 16px;&quot;&gt;" style="text;html=1;resizable=0;autosize=1;align=center;verticalAlign=middle;points=[];fillColor=none;strokeColor=none;rounded=0;fontStyle=1;fontSize=16;" vertex="1" parent="1">
                    <mxGeometry x="490" y="130" width="120" height="20" as="geometry"/>
                </mxCell>
                <mxCell id="9" value="" style="rounded=1;whiteSpace=wrap;html=1;fontSize=16;" vertex="1" parent="1">
                    <mxGeometry x="80" y="150" width="190" height="650" as="geometry"/>
                </mxCell>
                <mxCell id="10" value="Coffee List&lt;br style=&quot;font-size: 20px;&quot;&gt;" style="text;html=1;resizable=0;autosize=1;align=center;verticalAlign=middle;points=[];fillColor=none;strokeColor=none;rounded=0;fontSize=20;fontStyle=1" vertex="1" parent="1">
                    <mxGeometry x="115" y="175" width="120" height="30" as="geometry"/>
                </mxCell>
                <mxCell id="11" value="&lt;b&gt;Coffee&lt;/b&gt;" style="rounded=1;whiteSpace=wrap;html=1;fontSize=16;" vertex="1" parent="1">
                    <mxGeometry x="80" y="230" width="190" height="60" as="geometry"/>
                </mxCell>
                <mxCell id="12" value="Coffee" style="rounded=1;whiteSpace=wrap;html=1;fontSize=16;" vertex="1" parent="1">
                    <mxGeometry x="80" y="300" width="190" height="60" as="geometry"/>
                </mxCell>
                <mxCell id="13" value="Click on any to see details" style="rounded=1;whiteSpace=wrap;html=1;fontSize=16;" vertex="1" parent="1">
                    <mxGeometry x="80" y="370" width="190" height="60" as="geometry"/>
                </mxCell>
                <mxCell id="14" value="Coffee&lt;br&gt;" style="rounded=1;whiteSpace=wrap;html=1;fontSize=16;" vertex="1" parent="1">
                    <mxGeometry x="80" y="445" width="190" height="60" as="geometry"/>
                </mxCell>
                <mxCell id="15" value="" style="rounded=1;whiteSpace=wrap;html=1;fontSize=16;" vertex="1" parent="1">
                    <mxGeometry x="85" y="680" width="180" height="100" as="geometry"/>
                </mxCell>
                <mxCell id="16" value="" style="rounded=1;whiteSpace=wrap;html=1;fontSize=16;" vertex="1" parent="1">
                    <mxGeometry x="80" y="520" width="190" height="60" as="geometry"/>
                </mxCell>
                <mxCell id="17" value="" style="rounded=1;whiteSpace=wrap;html=1;fontSize=16;" vertex="1" parent="1">
                    <mxGeometry x="310" y="160" width="200" height="650" as="geometry"/>
                </mxCell>
                <mxCell id="19" value="" style="rounded=1;whiteSpace=wrap;html=1;fontSize=16;" vertex="1" parent="1">
                    <mxGeometry x="560" y="160" width="210" height="650" as="geometry"/>
                </mxCell>
                <mxCell id="20" value="" style="rounded=1;whiteSpace=wrap;html=1;fontSize=16;" vertex="1" parent="1">
                    <mxGeometry x="820" y="160" width="210" height="650" as="geometry"/>
                </mxCell>
                <mxCell id="21" value="Reusable Form" style="text;html=1;strokeColor=none;fillColor=none;align=center;verticalAlign=middle;whiteSpace=wrap;rounded=0;fontSize=20;fontStyle=1" vertex="1" parent="1">
                    <mxGeometry x="380" y="190" width="60" height="30" as="geometry"/>
                </mxCell>
                <mxCell id="22" value="NewForm" style="rounded=1;whiteSpace=wrap;html=1;fontSize=16;" vertex="1" parent="1">
                    <mxGeometry x="350" y="290" width="120" height="80" as="geometry"/>
                </mxCell>
                <mxCell id="23" value="Clicking will add new sack of coffee to shop" style="rounded=1;whiteSpace=wrap;html=1;fontSize=16;" vertex="1" parent="1">
                    <mxGeometry x="320" y="630" width="180" height="160" as="geometry"/>
                </mxCell>
                <mxCell id="24" value="Submit" style="text;html=1;strokeColor=none;fillColor=none;align=center;verticalAlign=middle;whiteSpace=wrap;rounded=0;fontSize=20;fontStyle=1" vertex="1" parent="1">
                    <mxGeometry x="380" y="640" width="60" height="30" as="geometry"/>
                </mxCell>
                <mxCell id="25" value="Coffee Detail" style="text;html=1;strokeColor=none;fillColor=none;align=center;verticalAlign=middle;whiteSpace=wrap;rounded=0;fontSize=20;fontStyle=1" vertex="1" parent="1">
                    <mxGeometry x="630" y="190" width="60" height="30" as="geometry"/>
                </mxCell>
                <mxCell id="26" value="Shows details of selected coffee" style="text;html=1;strokeColor=none;fillColor=none;align=center;verticalAlign=middle;whiteSpace=wrap;rounded=0;fontSize=17;" vertex="1" parent="1">
                    <mxGeometry x="635" y="300" width="60" height="30" as="geometry"/>
                </mxCell>
                <mxCell id="27" value="" style="rounded=1;whiteSpace=wrap;html=1;fontSize=20;" vertex="1" parent="1">
                    <mxGeometry x="570" y="590" width="190" height="200" as="geometry"/>
                </mxCell>
                <mxCell id="28" value="Update/Delete" style="text;html=1;strokeColor=none;fillColor=none;align=center;verticalAlign=middle;whiteSpace=wrap;rounded=0;fontSize=20;" vertex="1" parent="1">
                    <mxGeometry x="630" y="600" width="60" height="30" as="geometry"/>
                </mxCell>
                <mxCell id="30" value="Allows access to edit / delete forms" style="text;html=1;strokeColor=none;fillColor=none;align=center;verticalAlign=middle;whiteSpace=wrap;rounded=0;fontSize=18;fontStyle=0" vertex="1" parent="1">
                    <mxGeometry x="630" y="700" width="60" height="30" as="geometry"/>
                </mxCell>
            </root>
        </mxGraphModel>
    </diagram>
</mxfile>